<svg version="1" xmlns="http://www.w3.org/2000/svg" width="346.667" height="346.667" viewBox="0 0 260.000000 260.000000"><path d="M113.2 1C57.6 8.9 14.4 49.4 2.4 105c-2.6 11.9-2.6 38.1 0 49.9 5.9 27.3 16.7 47.3 36.1 66.6 19.4 19.5 39.2 30.2 66.6 36.1 11.8 2.6 38 2.6 49.8 0 27.3-5.9 47.4-16.7 66.7-36 19.3-19.4 30.1-39.3 36-66.7 1.4-6.2 1.8-12.7 1.8-24.9s-.4-18.7-1.8-24.9c-5.9-27.4-16.7-47.3-36-66.7-19-18.9-38.4-29.6-64.6-35.5C147.2.7 123-.4 113.2 1zm-2 32.6c11.8 5.9 15.6 17.6 32.4 99.4 2.9 14.6 5.6 27.5 5.9 28.7.4 1.7-.2 2.6-2.6 3.8-1.7.9-3.6 1.4-4.3 1.2-.7-.3-10.7-14.4-22.2-31.3C75.2 69.1 70.6 59.8 76 47.2c5.6-12.9 23.2-19.7 35.2-13.6zm63.4 151.7c11 5.7 16.2 19.4 11.4 30.6-7.8 18-33.6 20.3-43 3.8-3.9-6.9-4.6-12.1-2.6-19.1 2-6.9 6.5-12.2 13.1-15.3 4.1-2 6.2-2.3 11.5-2 3.6.2 7.9 1.1 9.6 2z"/></svg>